<svg width="150" height="48" viewBox="0 0 150 48" fill="none" xmlns="http://www.w3.org/2000/svg">
<path d="M7.636 27V18.404L9.148 22.352L0.244 7.4H7.216L13.236 17.62H9.176L15.252 7.4H21.636L12.788 22.352L14.244 18.404V27H7.636ZM29.0669 27.28C27.2003 27.28 25.5669 26.9347 24.1669 26.244C22.7856 25.5533 21.7123 24.6107 20.9469 23.416C20.1816 22.2027 19.7989 20.84 19.7989 19.328C19.7989 17.7787 20.1723 16.4067 20.9189 15.212C21.6843 14.0173 22.7203 13.084 24.0269 12.412C25.3523 11.74 26.8363 11.404 28.4789 11.404C29.9909 11.404 31.3816 11.7027 32.6509 12.3C33.9389 12.8973 34.9656 13.784 35.7309 14.96C36.5149 16.136 36.9069 17.592 36.9069 19.328C36.9069 19.552 36.8976 19.804 36.8789 20.084C36.8603 20.3453 36.8416 20.588 36.8229 20.812H25.0349V17.76H33.4629L31.0829 18.572C31.0829 17.9747 30.9709 17.4707 30.7469 17.06C30.5416 16.6307 30.2523 16.304 29.8789 16.08C29.5056 15.8373 29.0576 15.716 28.5349 15.716C28.0123 15.716 27.5549 15.8373 27.1629 16.08C26.7896 16.304 26.5003 16.6307 26.2949 17.06C26.0896 17.4707 25.9869 17.9747 25.9869 18.572V19.524C25.9869 20.1773 26.1176 20.7373 26.3789 21.204C26.6403 21.6707 27.0136 22.0253 27.4989 22.268C27.9843 22.492 28.5723 22.604 29.2629 22.604C29.9723 22.604 30.5509 22.5107 30.9989 22.324C31.4656 22.1373 31.9509 21.8573 32.4549 21.484L35.7589 24.816C35.0123 25.6187 34.0883 26.2347 32.9869 26.664C31.9043 27.0747 30.5976 27.28 29.0669 27.28ZM44.8959 27.28C43.5892 27.28 42.3012 27.14 41.0319 26.86C39.7626 26.58 38.7359 26.216 37.9519 25.768L39.6879 21.596C40.4159 22.0253 41.2559 22.3613 42.2079 22.604C43.1786 22.8467 44.1212 22.968 45.0359 22.968C45.8012 22.968 46.3146 22.9027 46.5759 22.772C46.8559 22.6413 46.9959 22.464 46.9959 22.24C46.9959 22.016 46.8372 21.8573 46.5199 21.764C46.2026 21.652 45.7826 21.568 45.2599 21.512C44.7372 21.456 44.1586 21.3907 43.5239 21.316C42.9079 21.2227 42.2826 21.092 41.6479 20.924C41.0132 20.756 40.4346 20.504 39.9119 20.168C39.3892 19.832 38.9692 19.384 38.6519 18.824C38.3346 18.2453 38.1759 17.5173 38.1759 16.64C38.1759 15.6693 38.4652 14.792 39.0439 14.008C39.6412 13.224 40.5186 12.5987 41.6759 12.132C42.8519 11.6467 44.2986 11.404 46.0159 11.404C47.1359 11.404 48.2559 11.5067 49.3759 11.712C50.4959 11.9173 51.4572 12.2347 52.2599 12.664L50.5239 16.836C49.7399 16.4067 48.9652 16.1173 48.1999 15.968C47.4532 15.8 46.7532 15.716 46.0999 15.716C45.2972 15.716 44.7466 15.7907 44.4479 15.94C44.1679 16.0893 44.0279 16.2573 44.0279 16.444C44.0279 16.668 44.1866 16.836 44.5039 16.948C44.8212 17.06 45.2412 17.144 45.7639 17.2C46.2866 17.256 46.8559 17.3307 47.4719 17.424C48.1066 17.4987 48.7319 17.6293 49.3479 17.816C49.9826 17.984 50.5612 18.236 51.0839 18.572C51.6066 18.908 52.0266 19.3653 52.3439 19.944C52.6612 20.504 52.8199 21.2227 52.8199 22.1C52.8199 23.0147 52.5306 23.8733 51.9519 24.676C51.3732 25.46 50.4959 26.0947 49.3199 26.58C48.1439 27.0467 46.6692 27.28 44.8959 27.28ZM64.0039 27V24.284L63.5559 23.556V18.404C63.5559 17.6573 63.3226 17.088 62.8559 16.696C62.4079 16.304 61.6706 16.108 60.6439 16.108C59.9533 16.108 59.2533 16.22 58.5439 16.444C57.8346 16.6493 57.2279 16.9387 56.7239 17.312L54.7079 13.14C55.6039 12.58 56.6773 12.1507 57.9279 11.852C59.1786 11.5533 60.4013 11.404 61.5959 11.404C64.2279 11.404 66.2626 11.992 67.6999 13.168C69.1559 14.344 69.8839 16.2107 69.8839 18.768V27H64.0039ZM59.6639 27.28C58.4133 27.28 57.3679 27.0653 56.5279 26.636C55.6879 26.2067 55.0533 25.6373 54.6239 24.928C54.1946 24.2 53.9799 23.3973 53.9799 22.52C53.9799 21.5307 54.2319 20.6907 54.7359 20C55.2399 19.3093 56.0053 18.7867 57.0319 18.432C58.0773 18.0773 59.3933 17.9 60.9799 17.9H64.1719V20.952H61.9879C61.3159 20.952 60.8213 21.064 60.5039 21.288C60.2053 21.4933 60.0559 21.8107 60.0559 22.24C60.0559 22.5947 60.1866 22.8933 60.4479 23.136C60.7279 23.36 61.1013 23.472 61.5679 23.472C61.9973 23.472 62.3893 23.36 62.7439 23.136C63.1173 22.8933 63.3879 22.52 63.5559 22.016L64.3679 23.892C64.1253 25.0307 63.6119 25.88 62.8279 26.44C62.0439 27 60.9893 27.28 59.6639 27.28ZM72.6188 27V11.684H78.6388V16.304L77.6588 14.988C78.1254 13.7933 78.8721 12.8973 79.8988 12.3C80.9254 11.7027 82.1574 11.404 83.5948 11.404V17.004C83.3148 16.9667 83.0628 16.9387 82.8388 16.92C82.6334 16.9013 82.4188 16.892 82.1948 16.892C81.2428 16.892 80.4588 17.144 79.8428 17.648C79.2454 18.1333 78.9468 18.9827 78.9468 20.196V27H72.6188ZM93.7076 27.28C91.8409 27.28 90.2076 26.9347 88.8076 26.244C87.4262 25.5533 86.3529 24.6107 85.5876 23.416C84.8222 22.2027 84.4396 20.84 84.4396 19.328C84.4396 17.7787 84.8129 16.4067 85.5596 15.212C86.3249 14.0173 87.3609 13.084 88.6676 12.412C89.9929 11.74 91.4769 11.404 93.1196 11.404C94.6316 11.404 96.0222 11.7027 97.2916 12.3C98.5796 12.8973 99.6062 13.784 100.372 14.96C101.156 16.136 101.548 17.592 101.548 19.328C101.548 19.552 101.538 19.804 101.52 20.084C101.501 20.3453 101.482 20.588 101.464 20.812H89.6756V17.76H98.1036L95.7236 18.572C95.7236 17.9747 95.6116 17.4707 95.3876 17.06C95.1822 16.6307 94.8929 16.304 94.5196 16.08C94.1462 15.8373 93.6982 15.716 93.1756 15.716C92.6529 15.716 92.1956 15.8373 91.8036 16.08C91.4302 16.304 91.1409 16.6307 90.9356 17.06C90.7302 17.4707 90.6276 17.9747 90.6276 18.572V19.524C90.6276 20.1773 90.7582 20.7373 91.0196 21.204C91.2809 21.6707 91.6542 22.0253 92.1396 22.268C92.6249 22.492 93.2129 22.604 93.9036 22.604C94.6129 22.604 95.1916 22.5107 95.6396 22.324C96.1062 22.1373 96.5916 21.8573 97.0956 21.484L100.4 24.816C99.6529 25.6187 98.7289 26.2347 97.6276 26.664C96.5449 27.0747 95.2382 27.28 93.7076 27.28ZM112.001 27.28C110.134 27.28 108.501 26.9347 107.101 26.244C105.719 25.5533 104.646 24.6107 103.881 23.416C103.115 22.2027 102.733 20.84 102.733 19.328C102.733 17.7787 103.106 16.4067 103.853 15.212C104.618 14.0173 105.654 13.084 106.961 12.412C108.286 11.74 109.77 11.404 111.413 11.404C112.925 11.404 114.315 11.7027 115.585 12.3C116.873 12.8973 117.899 13.784 118.665 14.96C119.449 16.136 119.841 17.592 119.841 19.328C119.841 19.552 119.831 19.804 119.813 20.084C119.794 20.3453 119.775 20.588 119.757 20.812H107.969V17.76H116.397L114.017 18.572C114.017 17.9747 113.905 17.4707 113.681 17.06C113.475 16.6307 113.186 16.304 112.813 16.08C112.439 15.8373 111.991 15.716 111.469 15.716C110.946 15.716 110.489 15.8373 110.097 16.08C109.723 16.304 109.434 16.6307 109.229 17.06C109.023 17.4707 108.921 17.9747 108.921 18.572V19.524C108.921 20.1773 109.051 20.7373 109.313 21.204C109.574 21.6707 109.947 22.0253 110.433 22.268C110.918 22.492 111.506 22.604 112.197 22.604C112.906 22.604 113.485 22.5107 113.933 22.324C114.399 22.1373 114.885 21.8573 115.389 21.484L118.693 24.816C117.946 25.6187 117.022 26.2347 115.921 26.664C114.838 27.0747 113.531 27.28 112.001 27.28ZM142.11 11.404C143.267 11.404 144.303 11.6467 145.218 12.132C146.151 12.5987 146.879 13.336 147.402 14.344C147.943 15.352 148.214 16.6587 148.214 18.264V27H141.886V19.356C141.886 18.404 141.727 17.732 141.41 17.34C141.092 16.9293 140.682 16.724 140.178 16.724C139.804 16.724 139.468 16.8173 139.17 17.004C138.871 17.1907 138.628 17.4893 138.442 17.9C138.274 18.292 138.19 18.8333 138.19 19.524V27H131.862V19.356C131.862 18.404 131.712 17.732 131.414 17.34C131.115 16.9293 130.695 16.724 130.154 16.724C129.78 16.724 129.444 16.8173 129.146 17.004C128.847 17.1907 128.604 17.4893 128.418 17.9C128.25 18.292 128.166 18.8333 128.166 19.524V27H121.838V11.684H127.858V16.08L126.626 14.848C127.204 13.6907 127.979 12.832 128.95 12.272C129.92 11.6933 131.003 11.404 132.198 11.404C133.542 11.404 134.727 11.7587 135.754 12.468C136.799 13.1587 137.499 14.26 137.854 15.772L135.922 15.464C136.482 14.1947 137.294 13.2053 138.358 12.496C139.44 11.768 140.691 11.404 142.11 11.404Z" fill="#1363C6"/>
<path d="M8.12 44V32.8H11.288V41.488H16.632V44H8.12ZM22.2544 44.144C21.2304 44.144 20.3344 43.952 19.5664 43.568C18.809 43.1733 18.217 42.64 17.7904 41.968C17.3744 41.2853 17.1664 40.512 17.1664 39.648C17.1664 38.784 17.369 38.016 17.7744 37.344C18.1904 36.6613 18.761 36.1333 19.4864 35.76C20.2117 35.376 21.0277 35.184 21.9344 35.184C22.7877 35.184 23.5664 35.36 24.2704 35.712C24.9744 36.0533 25.5344 36.56 25.9504 37.232C26.3664 37.904 26.5744 38.72 26.5744 39.68C26.5744 39.7867 26.569 39.9093 26.5584 40.048C26.5477 40.1867 26.537 40.3147 26.5264 40.432H19.6624V38.832H24.9104L23.7584 39.28C23.769 38.8853 23.6944 38.544 23.5344 38.256C23.385 37.968 23.1717 37.744 22.8944 37.584C22.6277 37.424 22.313 37.344 21.9504 37.344C21.5877 37.344 21.2677 37.424 20.9904 37.584C20.7237 37.744 20.5157 37.9733 20.3664 38.272C20.217 38.56 20.1424 38.9013 20.1424 39.296V39.76C20.1424 40.1867 20.2277 40.5547 20.3984 40.864C20.5797 41.1733 20.8357 41.4133 21.1664 41.584C21.497 41.744 21.8917 41.824 22.3504 41.824C22.777 41.824 23.1397 41.7653 23.4384 41.648C23.7477 41.52 24.0517 41.328 24.3504 41.072L25.9504 42.736C25.5344 43.1947 25.0224 43.5467 24.4144 43.792C23.8064 44.0267 23.0864 44.144 22.2544 44.144ZM33.0376 44V42.384L32.8296 41.984V39.008C32.8296 38.528 32.6803 38.16 32.3816 37.904C32.0936 37.6373 31.6296 37.504 30.9896 37.504C30.5736 37.504 30.1523 37.5733 29.7256 37.712C29.299 37.84 28.9363 38.0213 28.6376 38.256L27.6136 36.192C28.1043 35.872 28.691 35.6267 29.3736 35.456C30.067 35.2747 30.755 35.184 31.4376 35.184C32.8456 35.184 33.9336 35.5093 34.7016 36.16C35.4803 36.8 35.8696 37.808 35.8696 39.184V44H33.0376ZM30.4776 44.144C29.7843 44.144 29.1976 44.0267 28.7176 43.792C28.2376 43.5573 27.8696 43.2373 27.6136 42.832C27.3683 42.4267 27.2456 41.9733 27.2456 41.472C27.2456 40.9387 27.379 40.48 27.6456 40.096C27.923 39.7013 28.3443 39.4027 28.9096 39.2C29.475 38.9867 30.2056 38.88 31.1016 38.88H33.1496V40.464H31.5176C31.027 40.464 30.6803 40.544 30.4776 40.704C30.2856 40.864 30.1896 41.0773 30.1896 41.344C30.1896 41.6107 30.291 41.824 30.4936 41.984C30.6963 42.144 30.9736 42.224 31.3256 42.224C31.6563 42.224 31.955 42.144 32.2216 41.984C32.499 41.8133 32.7016 41.5573 32.8296 41.216L33.2456 42.336C33.0856 42.9333 32.771 43.3867 32.3016 43.696C31.843 43.9947 31.235 44.144 30.4776 44.144ZM37.7885 44V35.328H40.6845V37.856L40.2525 37.136C40.5085 36.4853 40.9245 36 41.5005 35.68C42.0765 35.3493 42.7752 35.184 43.5965 35.184V37.92C43.4578 37.8987 43.3352 37.888 43.2285 37.888C43.1325 37.8773 43.0258 37.872 42.9085 37.872C42.2898 37.872 41.7885 38.0427 41.4045 38.384C41.0205 38.7147 40.8285 39.2587 40.8285 40.016V44H37.7885ZM50.499 35.184C51.171 35.184 51.779 35.3227 52.323 35.6C52.867 35.8667 53.2937 36.2827 53.603 36.848C53.923 37.4133 54.083 38.144 54.083 39.04V44H51.043V39.536C51.043 38.9173 50.915 38.4693 50.659 38.192C50.4137 37.904 50.067 37.76 49.619 37.76C49.299 37.76 49.0057 37.8347 48.739 37.984C48.4723 38.1227 48.2643 38.3413 48.115 38.64C47.9657 38.9387 47.891 39.328 47.891 39.808V44H44.851V35.328H47.747V37.792L47.187 37.072C47.5177 36.4427 47.971 35.9733 48.547 35.664C49.123 35.344 49.7737 35.184 50.499 35.184ZM55.9916 44V35.328H59.0316V44H55.9916ZM57.5116 34.368C56.957 34.368 56.509 34.2133 56.1676 33.904C55.8263 33.5947 55.6556 33.2107 55.6556 32.752C55.6556 32.2933 55.8263 31.9093 56.1676 31.6C56.509 31.2907 56.957 31.136 57.5116 31.136C58.0663 31.136 58.5143 31.2853 58.8556 31.584C59.197 31.872 59.3676 32.2453 59.3676 32.704C59.3676 33.184 59.197 33.584 58.8556 33.904C58.525 34.2133 58.077 34.368 57.5116 34.368ZM66.6553 35.184C67.3273 35.184 67.9353 35.3227 68.4792 35.6C69.0233 35.8667 69.4499 36.2827 69.7593 36.848C70.0793 37.4133 70.2393 38.144 70.2393 39.04V44H67.1993V39.536C67.1993 38.9173 67.0713 38.4693 66.8153 38.192C66.5699 37.904 66.2233 37.76 65.7753 37.76C65.4553 37.76 65.1619 37.8347 64.8953 37.984C64.6286 38.1227 64.4206 38.3413 64.2713 38.64C64.1219 38.9387 64.0473 39.328 64.0473 39.808V44H61.0073V35.328H63.9033V37.792L63.3433 37.072C63.6739 36.4427 64.1273 35.9733 64.7033 35.664C65.2793 35.344 65.9299 35.184 66.6553 35.184ZM76.4973 47.248C75.6653 47.248 74.8706 47.152 74.1133 46.96C73.3666 46.768 72.7266 46.4853 72.1933 46.112L73.2973 43.984C73.6599 44.272 74.1079 44.496 74.6413 44.656C75.1853 44.8267 75.7133 44.912 76.2253 44.912C77.0466 44.912 77.6386 44.7307 78.0013 44.368C78.3639 44.016 78.5453 43.4987 78.5453 42.816V41.792L78.7053 39.36L78.6893 36.912V35.328H81.5853V42.416C81.5853 44.0587 81.1426 45.2747 80.2573 46.064C79.3719 46.8533 78.1186 47.248 76.4973 47.248ZM75.9693 43.552C75.2013 43.552 74.4919 43.3813 73.8413 43.04C73.2013 42.688 72.6839 42.2027 72.2893 41.584C71.9053 40.9547 71.7133 40.2133 71.7133 39.36C71.7133 38.5067 71.9053 37.7707 72.2893 37.152C72.6839 36.5227 73.2013 36.0373 73.8413 35.696C74.4919 35.3547 75.2013 35.184 75.9693 35.184C76.7053 35.184 77.3346 35.3333 77.8573 35.632C78.3799 35.92 78.7746 36.3733 79.0413 36.992C79.3186 37.6107 79.4573 38.4 79.4573 39.36C79.4573 40.32 79.3186 41.1093 79.0413 41.728C78.7746 42.3467 78.3799 42.8053 77.8573 43.104C77.3346 43.4027 76.7053 43.552 75.9693 43.552ZM76.6893 41.136C77.0519 41.136 77.3719 41.0613 77.6493 40.912C77.9373 40.7627 78.1613 40.5547 78.3213 40.288C78.4919 40.0213 78.5773 39.712 78.5773 39.36C78.5773 39.008 78.4919 38.6987 78.3213 38.432C78.1613 38.1653 77.9373 37.9627 77.6493 37.824C77.3719 37.6747 77.0519 37.6 76.6893 37.6C76.3266 37.6 76.0013 37.6747 75.7133 37.824C75.4253 37.9627 75.1959 38.1653 75.0253 38.432C74.8653 38.6987 74.7853 39.008 74.7853 39.36C74.7853 39.712 74.8653 40.0213 75.0253 40.288C75.1959 40.5547 75.4253 40.7627 75.7133 40.912C76.0013 41.0613 76.3266 41.136 76.6893 41.136Z" fill="#1363C6"/>
</svg>
