<svg width="17" height="17" viewBox="0 0 17 17" fill="none" xmlns="http://www.w3.org/2000/svg">
<path d="M5.07683 0.254089H11.9235C14.5317 0.254089 16.651 2.3733 16.651 4.98155V11.8282C16.651 13.082 16.1529 14.2845 15.2663 15.171C14.3797 16.0576 13.1773 16.5557 11.9235 16.5557H5.07683C2.46857 16.5557 0.349365 14.4365 0.349365 11.8282V4.98155C0.349365 3.72775 0.847436 2.5253 1.73401 1.63873C2.62058 0.75216 3.82303 0.254089 5.07683 0.254089ZM4.91381 1.88425C4.13559 1.88425 3.38924 2.1934 2.83896 2.74368C2.28867 3.29397 1.97952 4.04031 1.97952 4.81853V11.9912C1.97952 13.6132 3.2918 14.9255 4.91381 14.9255H12.0865C12.8647 14.9255 13.6111 14.6164 14.1614 14.0661C14.7116 13.5158 15.0208 12.7695 15.0208 11.9912V4.81853C15.0208 3.19653 13.7085 1.88425 12.0865 1.88425H4.91381ZM12.7793 3.10687C13.0495 3.10687 13.3087 3.21421 13.4998 3.40528C13.6908 3.59635 13.7982 3.8555 13.7982 4.12572C13.7982 4.39593 13.6908 4.65508 13.4998 4.84615C13.3087 5.03722 13.0495 5.14457 12.7793 5.14457C12.5091 5.14457 12.25 5.03722 12.0589 4.84615C11.8678 4.65508 11.7605 4.39593 11.7605 4.12572C11.7605 3.8555 11.8678 3.59635 12.0589 3.40528C12.25 3.21421 12.5091 3.10687 12.7793 3.10687ZM8.50016 4.32949C9.58102 4.32949 10.6176 4.75886 11.3819 5.52314C12.1462 6.28743 12.5756 7.32402 12.5756 8.40488C12.5756 9.48575 12.1462 10.5223 11.3819 11.2866C10.6176 12.0509 9.58102 12.4803 8.50016 12.4803C7.4193 12.4803 6.3827 12.0509 5.61842 11.2866C4.85413 10.5223 4.42476 9.48575 4.42476 8.40488C4.42476 7.32402 4.85413 6.28743 5.61842 5.52314C6.3827 4.75886 7.4193 4.32949 8.50016 4.32949ZM8.50016 5.95965C7.85164 5.95965 7.22969 6.21727 6.77111 6.67584C6.31254 7.13441 6.05492 7.75637 6.05492 8.40488C6.05492 9.0534 6.31254 9.67536 6.77111 10.1339C7.22969 10.5925 7.85164 10.8501 8.50016 10.8501C9.14868 10.8501 9.77063 10.5925 10.2292 10.1339C10.6878 9.67536 10.9454 9.0534 10.9454 8.40488C10.9454 7.75637 10.6878 7.13441 10.2292 6.67584C9.77063 6.21727 9.14868 5.95965 8.50016 5.95965Z" fill="#1363C6"/>
</svg>
